<svg width="304" height="47" viewBox="0 0 304 47" fill="none" xmlns="http://www.w3.org/2000/svg">
<path d="M43.0938 1.1875L40.8438 43.5625L24.4688 45.0625L15.7188 22.375L14.3438 45.5H0.28125L1.40625 1.1875L17.0312 0.4375L27.8438 22.9375L28.3438 1.6875L43.0938 1.1875ZM80.5312 20.75C80.5312 22.5625 80.4062 24.375 80.1562 26.1875C76.5938 26.4167 73.0521 26.7917 69.5312 27.3125C66.0104 27.8125 62.4896 28.3125 58.9688 28.8125C59.5104 30.3125 60.3542 31.5104 61.5 32.4062C62.6667 33.3021 64.0521 33.75 65.6562 33.75C66.4896 33.75 67.3958 33.5938 68.375 33.2812C69.375 32.9688 70.3646 32.5833 71.3438 32.125C72.3229 31.6458 73.2604 31.1354 74.1562 30.5938C75.0521 30.0521 75.8229 29.5625 76.4688 29.125L74.9688 43.3125C74.1562 43.9375 73.2708 44.4688 72.3125 44.9062C71.375 45.3438 70.3958 45.6979 69.375 45.9688C68.3542 46.2396 67.3229 46.4375 66.2812 46.5625C65.2396 46.6875 64.2188 46.75 63.2188 46.75C61.1562 46.75 59.2708 46.4688 57.5625 45.9062C55.8542 45.3438 54.3021 44.5625 52.9062 43.5625C51.5312 42.5417 50.3229 41.3438 49.2812 39.9688C48.2396 38.5938 47.375 37.0938 46.6875 35.4688C46 33.8438 45.4792 32.125 45.125 30.3125C44.7708 28.5 44.5938 26.6667 44.5938 24.8125C44.5938 22.875 44.7708 20.9375 45.125 19C45.4792 17.0625 46.0104 15.1979 46.7188 13.4062C47.4479 11.6146 48.3542 9.95833 49.4375 8.4375C50.5417 6.89583 51.8229 5.55208 53.2812 4.40625C54.7396 3.26042 56.3854 2.36458 58.2188 1.71875C60.0729 1.07292 62.1146 0.75 64.3438 0.75C66.1979 0.75 67.8854 1.01042 69.4062 1.53125C70.9479 2.03125 72.3125 2.73958 73.5 3.65625C74.7083 4.55208 75.75 5.625 76.625 6.875C77.5208 8.125 78.25 9.5 78.8125 11C79.3958 12.4792 79.8229 14.0521 80.0938 15.7188C80.3854 17.3646 80.5312 19.0417 80.5312 20.75ZM68.0312 19.125C68.0312 18.5417 67.9688 17.9479 67.8438 17.3438C67.7188 16.7188 67.5104 16.1562 67.2188 15.6562C66.9479 15.1562 66.5833 14.75 66.125 14.4375C65.6667 14.1042 65.0938 13.9375 64.4062 13.9375C63.5729 13.9375 62.8333 14.1667 62.1875 14.625C61.5625 15.0625 61.0208 15.625 60.5625 16.3125C60.1042 16.9792 59.7292 17.7083 59.4375 18.5C59.1458 19.2917 58.9271 20.0208 58.7812 20.6875L68.0312 19.8125V19.125ZM138.406 2.625L131.094 44.6875L113.344 45.0625L109.531 23.875L105.719 43.4375L87.9688 44.0625L80.5938 3.875L96.0938 2.5L99.2188 27.1875L103.406 4.375H115.594L120.469 27.5L122.969 1.25L138.406 2.625ZM185.75 1.3125L185.438 14.5625L176.125 14.9375L173.75 44.5625L160.562 45.25L160.625 15.625L151.312 16.125L151.688 1.375L185.75 1.3125ZM225.406 22.0625C225.406 23.9583 225.188 25.7917 224.75 27.5625C224.312 29.3125 223.677 30.9583 222.844 32.5C222.031 34.0417 221.031 35.4583 219.844 36.75C218.677 38.0208 217.354 39.1146 215.875 40.0312C214.417 40.9479 212.823 41.6667 211.094 42.1875C209.365 42.6875 207.531 42.9375 205.594 42.9375C203.719 42.9375 201.927 42.6979 200.219 42.2188C198.531 41.7396 196.948 41.0729 195.469 40.2188C193.99 39.3438 192.646 38.3021 191.438 37.0938C190.25 35.8646 189.229 34.5104 188.375 33.0312C187.542 31.5312 186.885 29.9271 186.406 28.2188C185.948 26.5104 185.719 24.7292 185.719 22.875C185.719 21.0625 185.938 19.2917 186.375 17.5625C186.812 15.8125 187.438 14.1667 188.25 12.625C189.083 11.0833 190.083 9.66667 191.25 8.375C192.417 7.08333 193.719 5.96875 195.156 5.03125C196.615 4.09375 198.188 3.36458 199.875 2.84375C201.562 2.32292 203.344 2.0625 205.219 2.0625C208.24 2.0625 210.99 2.53125 213.469 3.46875C215.969 4.40625 218.094 5.75 219.844 7.5C221.615 9.22917 222.979 11.3333 223.938 13.8125C224.917 16.2708 225.406 19.0208 225.406 22.0625ZM211.531 22.875C211.531 21.9792 211.396 21.1146 211.125 20.2812C210.875 19.4271 210.5 18.6771 210 18.0312C209.5 17.3646 208.875 16.8333 208.125 16.4375C207.396 16.0208 206.552 15.8125 205.594 15.8125C204.615 15.8125 203.74 15.9896 202.969 16.3438C202.198 16.6979 201.531 17.1875 200.969 17.8125C200.427 18.4167 200.01 19.1354 199.719 19.9688C199.427 20.7812 199.281 21.6458 199.281 22.5625C199.281 23.4375 199.406 24.3125 199.656 25.1875C199.906 26.0625 200.281 26.8542 200.781 27.5625C201.281 28.2708 201.896 28.8438 202.625 29.2812C203.375 29.7188 204.24 29.9375 205.219 29.9375C206.198 29.9375 207.073 29.75 207.844 29.375C208.635 28.9792 209.302 28.4583 209.844 27.8125C210.385 27.1458 210.802 26.3854 211.094 25.5312C211.385 24.6771 211.531 23.7917 211.531 22.875ZM263 21.1875C263 24.1042 262.625 26.7188 261.875 29.0312C261.125 31.3438 260.073 33.3958 258.719 35.1875C257.385 36.9583 255.792 38.4688 253.938 39.7188C252.083 40.9688 250.052 42 247.844 42.8125C245.635 43.6042 243.281 44.1875 240.781 44.5625C238.302 44.9375 235.75 45.125 233.125 45.125C232.146 45.125 231.188 45.1042 230.25 45.0625C229.312 45 228.354 44.9167 227.375 44.8125L228.25 4.125C230.542 3.39583 232.896 2.88542 235.312 2.59375C237.75 2.28125 240.167 2.125 242.562 2.125C245.542 2.125 248.281 2.54167 250.781 3.375C253.281 4.20833 255.438 5.4375 257.25 7.0625C259.062 8.66667 260.469 10.6562 261.469 13.0312C262.49 15.3854 263 18.1042 263 21.1875ZM241.75 33.1875C243 33 244.135 32.625 245.156 32.0625C246.198 31.4792 247.094 30.7708 247.844 29.9375C248.594 29.0833 249.167 28.125 249.562 27.0625C249.979 25.9792 250.188 24.8333 250.188 23.625C250.188 22.4375 250.062 21.3333 249.812 20.3125C249.562 19.2708 249.156 18.375 248.594 17.625C248.031 16.8542 247.292 16.25 246.375 15.8125C245.458 15.3542 244.333 15.1042 243 15.0625L241.75 33.1875ZM303.594 22.0625C303.594 23.9583 303.375 25.7917 302.938 27.5625C302.5 29.3125 301.865 30.9583 301.031 32.5C300.219 34.0417 299.219 35.4583 298.031 36.75C296.865 38.0208 295.542 39.1146 294.062 40.0312C292.604 40.9479 291.01 41.6667 289.281 42.1875C287.552 42.6875 285.719 42.9375 283.781 42.9375C281.906 42.9375 280.115 42.6979 278.406 42.2188C276.719 41.7396 275.135 41.0729 273.656 40.2188C272.177 39.3438 270.833 38.3021 269.625 37.0938C268.438 35.8646 267.417 34.5104 266.562 33.0312C265.729 31.5312 265.073 29.9271 264.594 28.2188C264.135 26.5104 263.906 24.7292 263.906 22.875C263.906 21.0625 264.125 19.2917 264.562 17.5625C265 15.8125 265.625 14.1667 266.438 12.625C267.271 11.0833 268.271 9.66667 269.438 8.375C270.604 7.08333 271.906 5.96875 273.344 5.03125C274.802 4.09375 276.375 3.36458 278.062 2.84375C279.75 2.32292 281.531 2.0625 283.406 2.0625C286.427 2.0625 289.177 2.53125 291.656 3.46875C294.156 4.40625 296.281 5.75 298.031 7.5C299.802 9.22917 301.167 11.3333 302.125 13.8125C303.104 16.2708 303.594 19.0208 303.594 22.0625ZM289.719 22.875C289.719 21.9792 289.583 21.1146 289.312 20.2812C289.062 19.4271 288.688 18.6771 288.188 18.0312C287.688 17.3646 287.062 16.8333 286.312 16.4375C285.583 16.0208 284.74 15.8125 283.781 15.8125C282.802 15.8125 281.927 15.9896 281.156 16.3438C280.385 16.6979 279.719 17.1875 279.156 17.8125C278.615 18.4167 278.198 19.1354 277.906 19.9688C277.615 20.7812 277.469 21.6458 277.469 22.5625C277.469 23.4375 277.594 24.3125 277.844 25.1875C278.094 26.0625 278.469 26.8542 278.969 27.5625C279.469 28.2708 280.083 28.8438 280.812 29.2812C281.562 29.7188 282.427 29.9375 283.406 29.9375C284.385 29.9375 285.26 29.75 286.031 29.375C286.823 28.9792 287.49 28.4583 288.031 27.8125C288.573 27.1458 288.99 26.3854 289.281 25.5312C289.573 24.6771 289.719 23.7917 289.719 22.875Z" fill="#FFCC66"/>
</svg>
