<svg width="123" height="48" viewBox="0 0 123 48" fill="none" xmlns="http://www.w3.org/2000/svg">
<rect width="123" height="48" rx="24" fill="#EBB471" fill-opacity="0.3"/>
<path d="M55.0156 31.9502L48.9609 32.7314L48.2285 29.9727H45.4453L44.835 32.7314L38.6094 32.1211L43.4678 15.8613L50.2549 15.5195L55.0156 31.9502ZM47.7891 26.2373L46.8613 21.9893L45.958 26.2373H47.7891ZM69.1025 23.3076C69.1025 24.4469 68.9561 25.4683 68.6631 26.3716C68.3701 27.2749 67.9591 28.0765 67.4302 28.7764C66.9093 29.4681 66.2868 30.0581 65.5625 30.5464C64.8382 31.0347 64.0448 31.4375 63.1821 31.7549C62.3195 32.0641 61.3999 32.292 60.4233 32.4385C59.4549 32.585 58.458 32.6582 57.4326 32.6582C57.0501 32.6582 56.6758 32.6501 56.3096 32.6338C55.9434 32.6094 55.569 32.5768 55.1865 32.5361L55.5283 16.6426C56.4235 16.3577 57.3431 16.1584 58.2871 16.0444C59.2393 15.9224 60.1833 15.8613 61.1191 15.8613C62.2829 15.8613 63.353 16.0241 64.3296 16.3496C65.3062 16.6751 66.1484 17.1553 66.8564 17.79C67.5645 18.4167 68.1138 19.1938 68.5044 20.1216C68.9032 21.0412 69.1025 22.1032 69.1025 23.3076ZM60.8018 27.9951C61.29 27.9219 61.7336 27.7754 62.1323 27.5557C62.5392 27.3278 62.8892 27.0511 63.1821 26.7256C63.4751 26.3919 63.6989 26.0176 63.8535 25.6025C64.0163 25.1794 64.0977 24.7318 64.0977 24.2598C64.0977 23.7959 64.0488 23.3646 63.9512 22.9658C63.8535 22.5589 63.6948 22.209 63.4751 21.916C63.2554 21.6149 62.9665 21.3789 62.6084 21.208C62.2503 21.029 61.8109 20.9313 61.29 20.915L60.8018 27.9951ZM83.7021 23.3076C83.7021 24.4469 83.5557 25.4683 83.2627 26.3716C82.9697 27.2749 82.5588 28.0765 82.0298 28.7764C81.509 29.4681 80.8864 30.0581 80.1621 30.5464C79.4378 31.0347 78.6444 31.4375 77.7817 31.7549C76.9191 32.0641 75.9995 32.292 75.0229 32.4385C74.0545 32.585 73.0576 32.6582 72.0322 32.6582C71.6497 32.6582 71.2754 32.6501 70.9092 32.6338C70.543 32.6094 70.1686 32.5768 69.7861 32.5361L70.1279 16.6426C71.0231 16.3577 71.9427 16.1584 72.8867 16.0444C73.8389 15.9224 74.7829 15.8613 75.7188 15.8613C76.8825 15.8613 77.9526 16.0241 78.9292 16.3496C79.9058 16.6751 80.748 17.1553 81.4561 17.79C82.1641 18.4167 82.7134 19.1938 83.104 20.1216C83.5028 21.0412 83.7021 22.1032 83.7021 23.3076ZM75.4014 27.9951C75.8896 27.9219 76.3332 27.7754 76.7319 27.5557C77.1388 27.3278 77.4888 27.0511 77.7817 26.7256C78.0747 26.3919 78.2985 26.0176 78.4531 25.6025C78.6159 25.1794 78.6973 24.7318 78.6973 24.2598C78.6973 23.7959 78.6484 23.3646 78.5508 22.9658C78.4531 22.5589 78.2944 22.209 78.0747 21.916C77.855 21.6149 77.5661 21.3789 77.208 21.208C76.8499 21.029 76.4105 20.9313 75.8896 20.915L75.4014 27.9951Z" fill="#C18A26"/>
</svg>
