<svg width="369" height="124" viewBox="0 0 369 124" fill="none" xmlns="http://www.w3.org/2000/svg">
<rect width="369" height="124" rx="19" fill="#5DAC81" fill-opacity="0.3"/>
<circle cx="65.5" cy="61.5" r="44.5" fill="#096148" fill-opacity="0.3"/>
<path d="M158.625 73.3203L148.938 74.5703L147.766 70.1562H143.312L142.336 74.5703L132.375 73.5938L140.148 47.5781L151.008 47.0312L158.625 73.3203ZM147.062 64.1797L145.578 57.3828L144.133 64.1797H147.062ZM176.164 64.6484L175.344 73.3203L158.898 74.6094L159.523 46.7188H169.68L168.234 64.6484H176.164ZM194.211 64.6484L193.391 73.3203L176.945 74.6094L177.57 46.7188H187.727L186.281 64.6484H194.211ZM223.586 47.0703L223.391 55.3516L217.57 55.5859L216.086 74.1016L207.844 74.5312L207.883 56.0156L202.062 56.3281L202.297 47.1094L223.586 47.0703ZM246.594 73.3203L236.906 74.5703L235.734 70.1562H231.281L230.305 74.5703L220.344 73.5938L228.117 47.5781L238.977 47.0312L246.594 73.3203ZM235.031 64.1797L233.547 57.3828L232.102 64.1797H235.031ZM267.023 65C267.023 66.7839 266.711 68.3268 266.086 69.6289C265.474 70.918 264.628 71.9857 263.547 72.832C262.479 73.6654 261.223 74.2839 259.777 74.6875C258.345 75.0781 256.802 75.2734 255.148 75.2734C254.51 75.2734 253.807 75.1888 253.039 75.0195C252.284 74.8503 251.516 74.6419 250.734 74.3945C249.953 74.1341 249.198 73.8607 248.469 73.5742C247.753 73.2747 247.115 72.9948 246.555 72.7344L247.414 65.0781C248.521 65.7422 249.745 66.25 251.086 66.6016C252.44 66.9401 253.768 67.1094 255.07 67.1094C255.318 67.1094 255.617 67.1029 255.969 67.0898C256.32 67.0638 256.652 67.0052 256.965 66.9141C257.29 66.8099 257.564 66.6602 257.785 66.4648C258.007 66.2695 258.117 65.9896 258.117 65.625C258.117 65.3776 258.039 65.1693 257.883 65C257.727 64.8177 257.525 64.6745 257.277 64.5703C257.03 64.4531 256.75 64.3685 256.438 64.3164C256.125 64.2513 255.819 64.2057 255.52 64.1797C255.22 64.1536 254.94 64.1406 254.68 64.1406C254.419 64.1406 254.211 64.1406 254.055 64.1406C252.935 64.1406 251.913 63.9648 250.988 63.6133C250.077 63.2617 249.289 62.7669 248.625 62.1289C247.974 61.4779 247.466 60.6966 247.102 59.7852C246.737 58.8607 246.555 57.8385 246.555 56.7188C246.555 55.1823 246.861 53.8086 247.473 52.5977C248.098 51.3737 248.924 50.3385 249.953 49.4922C250.995 48.6328 252.186 47.9753 253.527 47.5195C254.868 47.0638 256.255 46.8359 257.688 46.8359C258.326 46.8359 258.983 46.862 259.66 46.9141C260.337 46.9531 261.008 47.0312 261.672 47.1484C262.349 47.2656 263.007 47.4154 263.645 47.5977C264.283 47.7799 264.888 48.0078 265.461 48.2812L264.719 56.2109C263.833 55.9115 262.902 55.6641 261.926 55.4688C260.962 55.2604 260.018 55.1562 259.094 55.1562C258.924 55.1562 258.703 55.1628 258.43 55.1758C258.169 55.1758 257.889 55.1953 257.59 55.2344C257.303 55.2604 257.01 55.306 256.711 55.3711C256.411 55.4362 256.145 55.5273 255.91 55.6445C255.676 55.7487 255.487 55.8919 255.344 56.0742C255.201 56.2565 255.135 56.4714 255.148 56.7188C255.161 57.0052 255.266 57.2266 255.461 57.3828C255.669 57.5391 255.93 57.6562 256.242 57.7344C256.568 57.7995 256.919 57.832 257.297 57.832C257.688 57.832 258.072 57.8255 258.449 57.8125C258.827 57.7865 259.178 57.7669 259.504 57.7539C259.829 57.7279 260.096 57.7214 260.305 57.7344C261.346 57.7995 262.284 58.0208 263.117 58.3984C263.951 58.776 264.654 59.2773 265.227 59.9023C265.812 60.5273 266.255 61.276 266.555 62.1484C266.867 63.0078 267.023 63.9583 267.023 65ZM292.297 49.7656L283.664 60.0391L291.594 73.4766L282.531 75.0781L276.594 67.0312L276.281 74.6875L268.156 75L268.781 47.0312L277.883 47.5391L277.18 55.5859L282.844 47.4219L292.297 49.7656ZM312.023 65C312.023 66.7839 311.711 68.3268 311.086 69.6289C310.474 70.918 309.628 71.9857 308.547 72.832C307.479 73.6654 306.223 74.2839 304.777 74.6875C303.345 75.0781 301.802 75.2734 300.148 75.2734C299.51 75.2734 298.807 75.1888 298.039 75.0195C297.284 74.8503 296.516 74.6419 295.734 74.3945C294.953 74.1341 294.198 73.8607 293.469 73.5742C292.753 73.2747 292.115 72.9948 291.555 72.7344L292.414 65.0781C293.521 65.7422 294.745 66.25 296.086 66.6016C297.44 66.9401 298.768 67.1094 300.07 67.1094C300.318 67.1094 300.617 67.1029 300.969 67.0898C301.32 67.0638 301.652 67.0052 301.965 66.9141C302.29 66.8099 302.564 66.6602 302.785 66.4648C303.007 66.2695 303.117 65.9896 303.117 65.625C303.117 65.3776 303.039 65.1693 302.883 65C302.727 64.8177 302.525 64.6745 302.277 64.5703C302.03 64.4531 301.75 64.3685 301.438 64.3164C301.125 64.2513 300.819 64.2057 300.52 64.1797C300.22 64.1536 299.94 64.1406 299.68 64.1406C299.419 64.1406 299.211 64.1406 299.055 64.1406C297.935 64.1406 296.913 63.9648 295.988 63.6133C295.077 63.2617 294.289 62.7669 293.625 62.1289C292.974 61.4779 292.466 60.6966 292.102 59.7852C291.737 58.8607 291.555 57.8385 291.555 56.7188C291.555 55.1823 291.861 53.8086 292.473 52.5977C293.098 51.3737 293.924 50.3385 294.953 49.4922C295.995 48.6328 297.186 47.9753 298.527 47.5195C299.868 47.0638 301.255 46.8359 302.688 46.8359C303.326 46.8359 303.983 46.862 304.66 46.9141C305.337 46.9531 306.008 47.0312 306.672 47.1484C307.349 47.2656 308.007 47.4154 308.645 47.5977C309.283 47.7799 309.888 48.0078 310.461 48.2812L309.719 56.2109C308.833 55.9115 307.902 55.6641 306.926 55.4688C305.962 55.2604 305.018 55.1562 304.094 55.1562C303.924 55.1562 303.703 55.1628 303.43 55.1758C303.169 55.1758 302.889 55.1953 302.59 55.2344C302.303 55.2604 302.01 55.306 301.711 55.3711C301.411 55.4362 301.145 55.5273 300.91 55.6445C300.676 55.7487 300.487 55.8919 300.344 56.0742C300.201 56.2565 300.135 56.4714 300.148 56.7188C300.161 57.0052 300.266 57.2266 300.461 57.3828C300.669 57.5391 300.93 57.6562 301.242 57.7344C301.568 57.7995 301.919 57.832 302.297 57.832C302.688 57.832 303.072 57.8255 303.449 57.8125C303.827 57.7865 304.178 57.7669 304.504 57.7539C304.829 57.7279 305.096 57.7214 305.305 57.7344C306.346 57.7995 307.284 58.0208 308.117 58.3984C308.951 58.776 309.654 59.2773 310.227 59.9023C310.812 60.5273 311.255 61.276 311.555 62.1484C311.867 63.0078 312.023 63.9583 312.023 65Z" fill="#096148"/>
<path d="M55.6667 47H86" stroke="#096148" stroke-width="8" stroke-linecap="round" stroke-linejoin="round"/>
<path d="M55.6667 61H86" stroke="#096148" stroke-width="8" stroke-linecap="round" stroke-linejoin="round"/>
<path d="M55.6667 75H86" stroke="#096148" stroke-width="8" stroke-linecap="round" stroke-linejoin="round"/>
<path d="M44 47H44.0237" stroke="#096148" stroke-width="8" stroke-linecap="round" stroke-linejoin="round"/>
<path d="M44 61H44.0237" stroke="#096148" stroke-width="8" stroke-linecap="round" stroke-linejoin="round"/>
<path d="M44 75H44.0237" stroke="#096148" stroke-width="8" stroke-linecap="round" stroke-linejoin="round"/>
</svg>
