<svg width="369" height="124" viewBox="0 0 369 124" fill="none" xmlns="http://www.w3.org/2000/svg">
<rect width="369" height="124" rx="19" fill="#EBB471" fill-opacity="0.3"/>
<path d="M160.559 46.9922L159.152 73.4766L148.918 74.4141L143.449 60.2344L142.59 74.6875H133.801L134.504 46.9922L144.27 46.5234L151.027 60.5859L151.34 47.3047L160.559 46.9922ZM183.957 59.2188C183.957 60.3516 183.879 61.4844 183.723 62.6172C181.496 62.7604 179.283 62.9948 177.082 63.3203C174.882 63.6328 172.681 63.9453 170.48 64.2578C170.819 65.1953 171.346 65.944 172.062 66.5039C172.792 67.0638 173.658 67.3438 174.66 67.3438C175.181 67.3438 175.747 67.2461 176.359 67.0508C176.984 66.8555 177.603 66.6146 178.215 66.3281C178.827 66.0286 179.413 65.7096 179.973 65.3711C180.533 65.0326 181.014 64.7266 181.418 64.4531L180.48 73.3203C179.973 73.7109 179.419 74.043 178.82 74.3164C178.234 74.5898 177.622 74.8112 176.984 74.9805C176.346 75.1497 175.702 75.2734 175.051 75.3516C174.4 75.4297 173.762 75.4688 173.137 75.4688C171.848 75.4688 170.669 75.293 169.602 74.9414C168.534 74.5898 167.564 74.1016 166.691 73.4766C165.832 72.8385 165.077 72.0898 164.426 71.2305C163.775 70.3711 163.234 69.4336 162.805 68.418C162.375 67.4023 162.049 66.3281 161.828 65.1953C161.607 64.0625 161.496 62.9167 161.496 61.7578C161.496 60.5469 161.607 59.3359 161.828 58.125C162.049 56.9141 162.382 55.7487 162.824 54.6289C163.28 53.5091 163.846 52.474 164.523 51.5234C165.214 50.5599 166.014 49.7201 166.926 49.0039C167.837 48.2878 168.866 47.7279 170.012 47.3242C171.171 46.9206 172.447 46.7188 173.84 46.7188C174.999 46.7188 176.053 46.8815 177.004 47.207C177.967 47.5195 178.82 47.9622 179.562 48.5352C180.318 49.0951 180.969 49.7656 181.516 50.5469C182.076 51.3281 182.531 52.1875 182.883 53.125C183.247 54.0495 183.514 55.0326 183.684 56.0742C183.866 57.1029 183.957 58.151 183.957 59.2188ZM176.145 58.2031C176.145 57.8385 176.105 57.4674 176.027 57.0898C175.949 56.6992 175.819 56.3477 175.637 56.0352C175.467 55.7227 175.24 55.4688 174.953 55.2734C174.667 55.0651 174.309 54.9609 173.879 54.9609C173.358 54.9609 172.896 55.1042 172.492 55.3906C172.102 55.6641 171.763 56.0156 171.477 56.4453C171.19 56.862 170.956 57.3177 170.773 57.8125C170.591 58.3073 170.454 58.763 170.363 59.1797L176.145 58.6328V58.2031ZM220.129 47.8906L215.559 74.1797L204.465 74.4141L202.082 61.1719L199.699 73.3984L188.605 73.7891L183.996 48.6719L193.684 47.8125L195.637 63.2422L198.254 48.9844H205.871L208.918 63.4375L210.48 47.0312L220.129 47.8906ZM249.719 47.0703L249.523 55.3516L243.703 55.5859L242.219 74.1016L233.977 74.5312L234.016 56.0156L228.195 56.3281L228.43 47.1094L249.719 47.0703ZM274.504 60.0391C274.504 61.224 274.367 62.3698 274.094 63.4766C273.82 64.5703 273.423 65.599 272.902 66.5625C272.395 67.526 271.77 68.4115 271.027 69.2188C270.298 70.013 269.471 70.6966 268.547 71.2695C267.635 71.8424 266.639 72.2917 265.559 72.6172C264.478 72.9297 263.332 73.0859 262.121 73.0859C260.949 73.0859 259.829 72.9362 258.762 72.6367C257.707 72.3372 256.717 71.9206 255.793 71.3867C254.868 70.8398 254.029 70.1888 253.273 69.4336C252.531 68.6654 251.893 67.819 251.359 66.8945C250.839 65.957 250.428 64.9544 250.129 63.8867C249.842 62.819 249.699 61.7057 249.699 60.5469C249.699 59.4141 249.836 58.3073 250.109 57.2266C250.383 56.1328 250.773 55.1042 251.281 54.1406C251.802 53.1771 252.427 52.2917 253.156 51.4844C253.885 50.6771 254.699 49.9805 255.598 49.3945C256.509 48.8086 257.492 48.3529 258.547 48.0273C259.602 47.7018 260.715 47.5391 261.887 47.5391C263.775 47.5391 265.493 47.832 267.043 48.418C268.605 49.0039 269.934 49.8438 271.027 50.9375C272.134 52.0182 272.987 53.3333 273.586 54.8828C274.198 56.4193 274.504 58.138 274.504 60.0391ZM265.832 60.5469C265.832 59.987 265.747 59.4466 265.578 58.9258C265.422 58.3919 265.188 57.9232 264.875 57.5195C264.562 57.1029 264.172 56.7708 263.703 56.5234C263.247 56.263 262.72 56.1328 262.121 56.1328C261.509 56.1328 260.962 56.2435 260.48 56.4648C259.999 56.6862 259.582 56.9922 259.23 57.3828C258.892 57.7604 258.632 58.2096 258.449 58.7305C258.267 59.2383 258.176 59.7786 258.176 60.3516C258.176 60.8984 258.254 61.4453 258.41 61.9922C258.566 62.5391 258.801 63.0339 259.113 63.4766C259.426 63.9193 259.81 64.2773 260.266 64.5508C260.734 64.8242 261.275 64.9609 261.887 64.9609C262.499 64.9609 263.046 64.8438 263.527 64.6094C264.022 64.362 264.439 64.0365 264.777 63.6328C265.116 63.2161 265.376 62.7409 265.559 62.207C265.741 61.6732 265.832 61.1198 265.832 60.5469ZM298 59.4922C298 61.3151 297.766 62.9492 297.297 64.3945C296.828 65.8398 296.171 67.1224 295.324 68.2422C294.491 69.349 293.495 70.293 292.336 71.0742C291.177 71.8555 289.908 72.5 288.527 73.0078C287.147 73.5026 285.676 73.8672 284.113 74.1016C282.564 74.3359 280.969 74.4531 279.328 74.4531C278.716 74.4531 278.117 74.4401 277.531 74.4141C276.945 74.375 276.346 74.3229 275.734 74.2578L276.281 48.8281C277.714 48.3724 279.185 48.0534 280.695 47.8711C282.219 47.6758 283.729 47.5781 285.227 47.5781C287.089 47.5781 288.801 47.8385 290.363 48.3594C291.926 48.8802 293.273 49.6484 294.406 50.6641C295.539 51.6667 296.418 52.9102 297.043 54.3945C297.681 55.8659 298 57.5651 298 59.4922ZM284.719 66.9922C285.5 66.875 286.21 66.6406 286.848 66.2891C287.499 65.9245 288.059 65.4818 288.527 64.9609C288.996 64.4271 289.354 63.8281 289.602 63.1641C289.862 62.487 289.992 61.7708 289.992 61.0156C289.992 60.2734 289.914 59.5833 289.758 58.9453C289.602 58.2943 289.348 57.7344 288.996 57.2656C288.645 56.7839 288.182 56.4062 287.609 56.1328C287.036 55.8464 286.333 55.6901 285.5 55.6641L284.719 66.9922ZM323.371 60.0391C323.371 61.224 323.234 62.3698 322.961 63.4766C322.688 64.5703 322.29 65.599 321.77 66.5625C321.262 67.526 320.637 68.4115 319.895 69.2188C319.165 70.013 318.339 70.6966 317.414 71.2695C316.503 71.8424 315.507 72.2917 314.426 72.6172C313.345 72.9297 312.199 73.0859 310.988 73.0859C309.816 73.0859 308.697 72.9362 307.629 72.6367C306.574 72.3372 305.585 71.9206 304.66 71.3867C303.736 70.8398 302.896 70.1888 302.141 69.4336C301.398 68.6654 300.76 67.819 300.227 66.8945C299.706 65.957 299.296 64.9544 298.996 63.8867C298.71 62.819 298.566 61.7057 298.566 60.5469C298.566 59.4141 298.703 58.3073 298.977 57.2266C299.25 56.1328 299.641 55.1042 300.148 54.1406C300.669 53.1771 301.294 52.2917 302.023 51.4844C302.753 50.6771 303.566 49.9805 304.465 49.3945C305.376 48.8086 306.359 48.3529 307.414 48.0273C308.469 47.7018 309.582 47.5391 310.754 47.5391C312.642 47.5391 314.361 47.832 315.91 48.418C317.473 49.0039 318.801 49.8438 319.895 50.9375C321.001 52.0182 321.854 53.3333 322.453 54.8828C323.065 56.4193 323.371 58.138 323.371 60.0391ZM314.699 60.5469C314.699 59.987 314.615 59.4466 314.445 58.9258C314.289 58.3919 314.055 57.9232 313.742 57.5195C313.43 57.1029 313.039 56.7708 312.57 56.5234C312.115 56.263 311.587 56.1328 310.988 56.1328C310.376 56.1328 309.829 56.2435 309.348 56.4648C308.866 56.6862 308.449 56.9922 308.098 57.3828C307.759 57.7604 307.499 58.2096 307.316 58.7305C307.134 59.2383 307.043 59.7786 307.043 60.3516C307.043 60.8984 307.121 61.4453 307.277 61.9922C307.434 62.5391 307.668 63.0339 307.98 63.4766C308.293 63.9193 308.677 64.2773 309.133 64.5508C309.602 64.8242 310.142 64.9609 310.754 64.9609C311.366 64.9609 311.913 64.8438 312.395 64.6094C312.889 64.362 313.306 64.0365 313.645 63.6328C313.983 63.2161 314.243 62.7409 314.426 62.207C314.608 61.6732 314.699 61.1198 314.699 60.5469Z" fill="#C18A26"/>
<circle cx="65.5" cy="61.5" r="44.5" fill="#C18A26" fill-opacity="0.3"/>
<path opacity="0.8" d="M66 45.6667V78.3334" stroke="#C18A26" stroke-width="8" stroke-linecap="round" stroke-linejoin="round"/>
<path opacity="0.8" d="M49.6667 62H82.3334" stroke="#C18A26" stroke-width="8" stroke-linecap="round" stroke-linejoin="round"/>
</svg>
