<svg width="369" height="124" viewBox="0 0 369 124" fill="none" xmlns="http://www.w3.org/2000/svg">
<rect width="369" height="124" rx="19" fill="#5DAC81" fill-opacity="0.3"/>
<path d="M152.996 64.6094C152.996 66.3932 152.684 67.9557 152.059 69.2969C151.447 70.625 150.6 71.7318 149.52 72.6172C148.452 73.5026 147.195 74.1667 145.75 74.6094C144.318 75.0521 142.775 75.2734 141.121 75.2734C140.483 75.2734 139.78 75.1888 139.012 75.0195C138.257 74.8503 137.488 74.6419 136.707 74.3945C135.926 74.1341 135.171 73.8607 134.441 73.5742C133.725 73.2747 133.087 72.9948 132.527 72.7344L133.387 64.6875C134.493 65.3516 135.717 65.8594 137.059 66.2109C138.413 66.5495 139.741 66.7188 141.043 66.7188C141.29 66.7188 141.59 66.7122 141.941 66.6992C142.293 66.6732 142.625 66.6146 142.938 66.5234C143.263 66.4193 143.536 66.2695 143.758 66.0742C143.979 65.8789 144.09 65.599 144.09 65.2344C144.09 64.987 144.012 64.7786 143.855 64.6094C143.699 64.4271 143.497 64.2839 143.25 64.1797C143.003 64.0625 142.723 63.9779 142.41 63.9258C142.098 63.8607 141.792 63.8151 141.492 63.7891C141.193 63.763 140.913 63.75 140.652 63.75C140.392 63.75 140.184 63.75 140.027 63.75C138.908 63.75 137.885 63.5547 136.961 63.1641C136.049 62.7734 135.262 62.2331 134.598 61.543C133.947 60.8398 133.439 60.013 133.074 59.0625C132.71 58.099 132.527 57.0573 132.527 55.9375C132.527 54.401 132.833 53.0273 133.445 51.8164C134.07 50.5924 134.897 49.5573 135.926 48.7109C136.967 47.8516 138.159 47.194 139.5 46.7383C140.841 46.2826 142.228 46.0547 143.66 46.0547C144.298 46.0547 144.956 46.0807 145.633 46.1328C146.31 46.1719 146.98 46.25 147.645 46.3672C148.322 46.4844 148.979 46.6341 149.617 46.8164C150.255 46.9987 150.861 47.2266 151.434 47.5L150.691 55.4297C149.806 55.1302 148.875 54.8828 147.898 54.6875C146.935 54.4792 145.991 54.375 145.066 54.375C144.897 54.375 144.676 54.3815 144.402 54.3945C144.142 54.3945 143.862 54.4141 143.562 54.4531C143.276 54.4792 142.983 54.5247 142.684 54.5898C142.384 54.6549 142.117 54.7461 141.883 54.8633C141.648 54.9674 141.46 55.1107 141.316 55.293C141.173 55.4753 141.108 55.6901 141.121 55.9375C141.134 56.224 141.238 56.4583 141.434 56.6406C141.642 56.8099 141.902 56.9466 142.215 57.0508C142.54 57.1419 142.892 57.207 143.27 57.2461C143.66 57.2852 144.044 57.3112 144.422 57.3242C144.799 57.3242 145.151 57.3242 145.477 57.3242C145.802 57.3112 146.069 57.3177 146.277 57.3438C147.319 57.4089 148.257 57.6302 149.09 58.0078C149.923 58.3854 150.626 58.8867 151.199 59.5117C151.785 60.1367 152.228 60.8854 152.527 61.7578C152.84 62.6172 152.996 63.5677 152.996 64.6094ZM172.742 46.8359C172.664 48.0599 172.592 49.2708 172.527 50.4688C172.462 51.6667 172.378 52.8776 172.273 54.1016L163.992 54.5312L163.797 56.9922H169.617L169.188 63.0469L163.328 63.2422L163.133 66.0938H167.977H171.414C171.336 67.526 171.251 68.9518 171.16 70.3711C171.082 71.7773 171.01 73.1901 170.945 74.6094L154.109 75L154.734 46.8359H172.742ZM194.07 47.0703L193.875 55.3516L188.055 55.5859L186.57 74.1016L178.328 74.5312L178.367 56.0156L172.547 56.3281L172.781 47.1094L194.07 47.0703ZM216.219 47.0703L216.023 55.3516L210.203 55.5859L208.719 74.1016L200.477 74.5312L200.516 56.0156L194.695 56.3281L194.93 47.1094L216.219 47.0703ZM227.84 47.5L225.691 74.1016L217.449 74.5312V48.0469L227.84 47.5ZM255.77 46.9922L254.363 73.4766L244.129 74.4141L238.66 60.2344L237.801 74.6875H229.012L229.715 46.9922L239.48 46.5234L246.238 60.5859L246.551 47.3047L255.77 46.9922ZM280.945 71.0156C280.333 71.7839 279.578 72.4544 278.68 73.0273C277.781 73.6003 276.818 74.0755 275.789 74.4531C274.76 74.8307 273.706 75.1107 272.625 75.293C271.544 75.4883 270.516 75.5859 269.539 75.5859C267.651 75.5859 265.913 75.2474 264.324 74.5703C262.736 73.8932 261.362 72.9622 260.203 71.7773C259.057 70.5794 258.159 69.1732 257.508 67.5586C256.857 65.944 256.531 64.2057 256.531 62.3438C256.531 60.9245 256.694 59.5378 257.02 58.1836C257.345 56.8164 257.807 55.5339 258.406 54.3359C259.018 53.125 259.76 52.0182 260.633 51.0156C261.505 50 262.495 49.1276 263.602 48.3984C264.708 47.6693 265.919 47.1029 267.234 46.6992C268.549 46.2956 269.956 46.0938 271.453 46.0938C272.013 46.0938 272.612 46.1198 273.25 46.1719C273.888 46.2109 274.52 46.2891 275.145 46.4062C275.783 46.5104 276.401 46.6602 277 46.8555C277.599 47.0508 278.146 47.2917 278.641 47.5781L278.094 55.0391C277.365 54.7656 276.609 54.5833 275.828 54.4922C275.06 54.388 274.305 54.3359 273.562 54.3359C272.521 54.3359 271.544 54.4987 270.633 54.8242C269.734 55.1367 268.947 55.5924 268.27 56.1914C267.605 56.7904 267.078 57.5195 266.688 58.3789C266.297 59.2383 266.102 60.2083 266.102 61.2891C266.102 61.9661 266.193 62.6237 266.375 63.2617C266.557 63.8867 266.831 64.4466 267.195 64.9414C267.573 65.4232 268.035 65.8138 268.582 66.1133C269.142 66.4128 269.786 66.5625 270.516 66.5625C271.01 66.5625 271.518 66.4974 272.039 66.3672C272.573 66.237 273.029 66.0156 273.406 65.7031L273.484 64.1797L268.797 64.1016L269.031 58.2422C270.971 58.1771 272.911 58.125 274.852 58.0859C276.792 58.0339 278.745 57.9688 280.711 57.8906L280.945 71.0156Z" fill="#096148"/>
<circle cx="65.5" cy="61.5" r="44.5" fill="#096148" fill-opacity="0.3"/>
<path d="M65 67C67.7614 67 70 64.7614 70 62C70 59.2386 67.7614 57 65 57C62.2386 57 60 59.2386 60 62C60 64.7614 62.2386 67 65 67Z" stroke="#096148" stroke-width="5" stroke-linecap="round" stroke-linejoin="round"/>
<path d="M79.8 68C79.5338 68.6032 79.4544 69.2724 79.572 69.9212C79.6896 70.57 79.9989 71.1686 80.46 71.64L80.58 71.76C80.9519 72.1315 81.2469 72.5726 81.4482 73.0582C81.6495 73.5438 81.7531 74.0643 81.7531 74.59C81.7531 75.1157 81.6495 75.6362 81.4482 76.1218C81.2469 76.6074 80.9519 77.0485 80.58 77.42C80.2085 77.7919 79.7674 78.0869 79.2818 78.2882C78.7962 78.4895 78.2757 78.5931 77.75 78.5931C77.2243 78.5931 76.7038 78.4895 76.2182 78.2882C75.7326 78.0869 75.2915 77.7919 74.92 77.42L74.8 77.3C74.3286 76.8389 73.73 76.5296 73.0812 76.412C72.4324 76.2944 71.7632 76.3738 71.16 76.64C70.5685 76.8935 70.064 77.3145 69.7086 77.8511C69.3533 78.3877 69.1626 79.0164 69.16 79.66V80C69.16 81.0609 68.7386 82.0783 67.9884 82.8284C67.2383 83.5786 66.2209 84 65.16 84C64.0991 84 63.0817 83.5786 62.3316 82.8284C61.5814 82.0783 61.16 81.0609 61.16 80V79.82C61.1445 79.158 60.9302 78.516 60.545 77.9774C60.1598 77.4388 59.6215 77.0286 59 76.8C58.3968 76.5338 57.7276 76.4544 57.0788 76.572C56.43 76.6896 55.8314 76.9989 55.36 77.46L55.24 77.58C54.8685 77.9519 54.4274 78.2469 53.9418 78.4482C53.4562 78.6495 52.9357 78.7531 52.41 78.7531C51.8843 78.7531 51.3638 78.6495 50.8782 78.4482C50.3926 78.2469 49.9515 77.9519 49.58 77.58C49.2081 77.2085 48.9131 76.7674 48.7118 76.2818C48.5105 75.7962 48.4069 75.2757 48.4069 74.75C48.4069 74.2243 48.5105 73.7038 48.7118 73.2182C48.9131 72.7326 49.2081 72.2915 49.58 71.92L49.7 71.8C50.1611 71.3286 50.4704 70.73 50.588 70.0812C50.7056 69.4324 50.6262 68.7632 50.36 68.16C50.1065 67.5685 49.6855 67.064 49.1489 66.7086C48.6124 66.3533 47.9836 66.1626 47.34 66.16H47C45.9391 66.16 44.9217 65.7386 44.1716 64.9884C43.4214 64.2383 43 63.2209 43 62.16C43 61.0991 43.4214 60.0817 44.1716 59.3316C44.9217 58.5814 45.9391 58.16 47 58.16H47.18C47.842 58.1445 48.484 57.9302 49.0226 57.545C49.5612 57.1598 49.9714 56.6215 50.2 56C50.4662 55.3968 50.5456 54.7276 50.428 54.0788C50.3104 53.43 50.0011 52.8314 49.54 52.36L49.42 52.24C49.0481 51.8685 48.7531 51.4274 48.5518 50.9418C48.3505 50.4562 48.2469 49.9357 48.2469 49.41C48.2469 48.8843 48.3505 48.3638 48.5518 47.8782C48.7531 47.3926 49.0481 46.9515 49.42 46.58C49.7915 46.2081 50.2326 45.9131 50.7182 45.7118C51.2038 45.5105 51.7243 45.4069 52.25 45.4069C52.7757 45.4069 53.2962 45.5105 53.7818 45.7118C54.2674 45.9131 54.7085 46.2081 55.08 46.58L55.2 46.7C55.6714 47.1611 56.27 47.4704 56.9188 47.588C57.5676 47.7056 58.2368 47.6262 58.84 47.36H59C59.5915 47.1065 60.096 46.6855 60.4514 46.1489C60.8067 45.6124 60.9974 44.9836 61 44.34V44C61 42.9391 61.4214 41.9217 62.1716 41.1716C62.9217 40.4214 63.9391 40 65 40C66.0609 40 67.0783 40.4214 67.8284 41.1716C68.5786 41.9217 69 42.9391 69 44V44.18C69.0026 44.8236 69.1933 45.4524 69.5486 45.9889C69.904 46.5255 70.4085 46.9465 71 47.2C71.6032 47.4662 72.2724 47.5456 72.9212 47.428C73.57 47.3104 74.1686 47.0011 74.64 46.54L74.76 46.42C75.1315 46.0481 75.5726 45.7531 76.0582 45.5518C76.5438 45.3505 77.0643 45.2469 77.59 45.2469C78.1157 45.2469 78.6362 45.3505 79.1218 45.5518C79.6074 45.7531 80.0485 46.0481 80.42 46.42C80.7919 46.7915 81.0869 47.2326 81.2882 47.7182C81.4895 48.2038 81.5931 48.7243 81.5931 49.25C81.5931 49.7757 81.4895 50.2962 81.2882 50.7818C81.0869 51.2674 80.7919 51.7085 80.42 52.08L80.3 52.2C79.8389 52.6714 79.5296 53.27 79.412 53.9188C79.2944 54.5676 79.3738 55.2368 79.64 55.84V56C79.8935 56.5915 80.3145 57.096 80.8511 57.4514C81.3877 57.8067 82.0164 57.9974 82.66 58H83C84.0609 58 85.0783 58.4214 85.8284 59.1716C86.5786 59.9217 87 60.9391 87 62C87 63.0609 86.5786 64.0783 85.8284 64.8284C85.0783 65.5786 84.0609 66 83 66H82.82C82.1764 66.0026 81.5477 66.1933 81.0111 66.5486C80.4745 66.904 80.0535 67.4085 79.8 68Z" stroke="#096148" stroke-width="6" stroke-linecap="round" stroke-linejoin="round"/>
</svg>
