<svg width="288" height="47" viewBox="0 0 288 47" fill="none" xmlns="http://www.w3.org/2000/svg">
<path d="M42 43.3125L26.5 45.3125L24.625 38.25H17.5L15.9375 45.3125L0 43.75L12.4375 2.125L29.8125 1.25L42 43.3125ZM23.5 28.6875L21.125 17.8125L18.8125 28.6875H23.5ZM70.0625 29.4375L68.75 43.3125L42.4375 45.375L43.4375 0.75H59.6875L57.375 29.4375H70.0625ZM98.9375 29.4375L97.625 43.3125L71.3125 45.375L72.3125 0.75H88.5625L86.25 29.4375H98.9375ZM145.938 1.3125L145.625 14.5625L136.312 14.9375L133.938 44.5625L120.75 45.25L120.812 15.625L111.5 16.125L111.875 1.375L145.938 1.3125ZM182.75 43.3125L167.25 45.3125L165.375 38.25H158.25L156.688 45.3125L140.75 43.75L153.188 2.125L170.562 1.25L182.75 43.3125ZM164.25 28.6875L161.875 17.8125L159.562 28.6875H164.25ZM215.438 30C215.438 32.8542 214.938 35.3229 213.938 37.4062C212.958 39.4688 211.604 41.1771 209.875 42.5312C208.167 43.8646 206.156 44.8542 203.844 45.5C201.552 46.125 199.083 46.4375 196.438 46.4375C195.417 46.4375 194.292 46.3021 193.062 46.0312C191.854 45.7604 190.625 45.4271 189.375 45.0312C188.125 44.6146 186.917 44.1771 185.75 43.7188C184.604 43.2396 183.583 42.7917 182.688 42.375L184.062 30.125C185.833 31.1875 187.792 32 189.938 32.5625C192.104 33.1042 194.229 33.375 196.312 33.375C196.708 33.375 197.188 33.3646 197.75 33.3438C198.312 33.3021 198.844 33.2083 199.344 33.0625C199.865 32.8958 200.302 32.6562 200.656 32.3438C201.01 32.0312 201.188 31.5833 201.188 31C201.188 30.6042 201.062 30.2708 200.812 30C200.562 29.7083 200.24 29.4792 199.844 29.3125C199.448 29.125 199 28.9896 198.5 28.9062C198 28.8021 197.51 28.7292 197.031 28.6875C196.552 28.6458 196.104 28.625 195.688 28.625C195.271 28.625 194.938 28.625 194.688 28.625C192.896 28.625 191.26 28.3438 189.781 27.7812C188.323 27.2188 187.062 26.4271 186 25.4062C184.958 24.3646 184.146 23.1146 183.562 21.6562C182.979 20.1771 182.688 18.5417 182.688 16.75C182.688 14.2917 183.177 12.0938 184.156 10.1562C185.156 8.19792 186.479 6.54167 188.125 5.1875C189.792 3.8125 191.698 2.76042 193.844 2.03125C195.99 1.30208 198.208 0.9375 200.5 0.9375C201.521 0.9375 202.573 0.979167 203.656 1.0625C204.74 1.125 205.812 1.25 206.875 1.4375C207.958 1.625 209.01 1.86458 210.031 2.15625C211.052 2.44792 212.021 2.8125 212.938 3.25L211.75 15.9375C210.333 15.4583 208.844 15.0625 207.281 14.75C205.74 14.4167 204.229 14.25 202.75 14.25C202.479 14.25 202.125 14.2604 201.688 14.2812C201.271 14.2812 200.823 14.3125 200.344 14.375C199.885 14.4167 199.417 14.4896 198.938 14.5938C198.458 14.6979 198.031 14.8438 197.656 15.0312C197.281 15.1979 196.979 15.4271 196.75 15.7188C196.521 16.0104 196.417 16.3542 196.438 16.75C196.458 17.2083 196.625 17.5625 196.938 17.8125C197.271 18.0625 197.688 18.25 198.188 18.375C198.708 18.4792 199.271 18.5312 199.875 18.5312C200.5 18.5312 201.115 18.5208 201.719 18.5C202.323 18.4583 202.885 18.4271 203.406 18.4062C203.927 18.3646 204.354 18.3542 204.688 18.375C206.354 18.4792 207.854 18.8333 209.188 19.4375C210.521 20.0417 211.646 20.8438 212.562 21.8438C213.5 22.8438 214.208 24.0417 214.688 25.4375C215.188 26.8125 215.438 28.3333 215.438 30ZM255.875 5.625L242.062 22.0625L254.75 43.5625L240.25 46.125L230.75 33.25L230.25 45.5L217.25 46L218.25 1.25L232.812 2.0625L231.688 14.9375L240.75 1.875L255.875 5.625ZM287.438 30C287.438 32.8542 286.938 35.3229 285.938 37.4062C284.958 39.4688 283.604 41.1771 281.875 42.5312C280.167 43.8646 278.156 44.8542 275.844 45.5C273.552 46.125 271.083 46.4375 268.438 46.4375C267.417 46.4375 266.292 46.3021 265.062 46.0312C263.854 45.7604 262.625 45.4271 261.375 45.0312C260.125 44.6146 258.917 44.1771 257.75 43.7188C256.604 43.2396 255.583 42.7917 254.688 42.375L256.062 30.125C257.833 31.1875 259.792 32 261.938 32.5625C264.104 33.1042 266.229 33.375 268.312 33.375C268.708 33.375 269.188 33.3646 269.75 33.3438C270.312 33.3021 270.844 33.2083 271.344 33.0625C271.865 32.8958 272.302 32.6562 272.656 32.3438C273.01 32.0312 273.188 31.5833 273.188 31C273.188 30.6042 273.062 30.2708 272.812 30C272.562 29.7083 272.24 29.4792 271.844 29.3125C271.448 29.125 271 28.9896 270.5 28.9062C270 28.8021 269.51 28.7292 269.031 28.6875C268.552 28.6458 268.104 28.625 267.688 28.625C267.271 28.625 266.938 28.625 266.688 28.625C264.896 28.625 263.26 28.3438 261.781 27.7812C260.323 27.2188 259.062 26.4271 258 25.4062C256.958 24.3646 256.146 23.1146 255.562 21.6562C254.979 20.1771 254.688 18.5417 254.688 16.75C254.688 14.2917 255.177 12.0938 256.156 10.1562C257.156 8.19792 258.479 6.54167 260.125 5.1875C261.792 3.8125 263.698 2.76042 265.844 2.03125C267.99 1.30208 270.208 0.9375 272.5 0.9375C273.521 0.9375 274.573 0.979167 275.656 1.0625C276.74 1.125 277.812 1.25 278.875 1.4375C279.958 1.625 281.01 1.86458 282.031 2.15625C283.052 2.44792 284.021 2.8125 284.938 3.25L283.75 15.9375C282.333 15.4583 280.844 15.0625 279.281 14.75C277.74 14.4167 276.229 14.25 274.75 14.25C274.479 14.25 274.125 14.2604 273.688 14.2812C273.271 14.2812 272.823 14.3125 272.344 14.375C271.885 14.4167 271.417 14.4896 270.938 14.5938C270.458 14.6979 270.031 14.8438 269.656 15.0312C269.281 15.1979 268.979 15.4271 268.75 15.7188C268.521 16.0104 268.417 16.3542 268.438 16.75C268.458 17.2083 268.625 17.5625 268.938 17.8125C269.271 18.0625 269.688 18.25 270.188 18.375C270.708 18.4792 271.271 18.5312 271.875 18.5312C272.5 18.5312 273.115 18.5208 273.719 18.5C274.323 18.4583 274.885 18.4271 275.406 18.4062C275.927 18.3646 276.354 18.3542 276.688 18.375C278.354 18.4792 279.854 18.8333 281.188 19.4375C282.521 20.0417 283.646 20.8438 284.562 21.8438C285.5 22.8438 286.208 24.0417 286.688 25.4375C287.188 26.8125 287.438 28.3333 287.438 30Z" fill="#096148"/>
</svg>
