<svg width="242" height="48" viewBox="0 0 242 48" fill="none" xmlns="http://www.w3.org/2000/svg">
<path d="M33.5938 30.375C33.5938 33.2292 33.0938 35.7292 32.0938 37.875C31.1146 40 29.7604 41.7708 28.0312 43.1875C26.3229 44.6042 24.3125 45.6667 22 46.375C19.7083 47.0833 17.2396 47.4375 14.5938 47.4375C13.5729 47.4375 12.4479 47.3021 11.2188 47.0312C10.0104 46.7604 8.78125 46.4271 7.53125 46.0312C6.28125 45.6146 5.07292 45.1771 3.90625 44.7188C2.76042 44.2396 1.73958 43.7917 0.84375 43.375L2.21875 30.5C3.98958 31.5625 5.94792 32.375 8.09375 32.9375C10.2604 33.4792 12.3854 33.75 14.4688 33.75C14.8646 33.75 15.3438 33.7396 15.9062 33.7188C16.4688 33.6771 17 33.5833 17.5 33.4375C18.0208 33.2708 18.4583 33.0312 18.8125 32.7188C19.1667 32.4062 19.3438 31.9583 19.3438 31.375C19.3438 30.9792 19.2188 30.6458 18.9688 30.375C18.7188 30.0833 18.3958 29.8542 18 29.6875C17.6042 29.5 17.1562 29.3646 16.6562 29.2812C16.1562 29.1771 15.6667 29.1042 15.1875 29.0625C14.7083 29.0208 14.2604 29 13.8438 29C13.4271 29 13.0938 29 12.8438 29C11.0521 29 9.41667 28.6875 7.9375 28.0625C6.47917 27.4375 5.21875 26.5729 4.15625 25.4688C3.11458 24.3438 2.30208 23.0208 1.71875 21.5C1.13542 19.9583 0.84375 18.2917 0.84375 16.5C0.84375 14.0417 1.33333 11.8438 2.3125 9.90625C3.3125 7.94792 4.63542 6.29167 6.28125 4.9375C7.94792 3.5625 9.85417 2.51042 12 1.78125C14.1458 1.05208 16.3646 0.6875 18.6562 0.6875C19.6771 0.6875 20.7292 0.729167 21.8125 0.8125C22.8958 0.875 23.9688 1 25.0312 1.1875C26.1146 1.375 27.1667 1.61458 28.1875 1.90625C29.2083 2.19792 30.1771 2.5625 31.0938 3L29.9062 15.6875C28.4896 15.2083 27 14.8125 25.4375 14.5C23.8958 14.1667 22.3854 14 20.9062 14C20.6354 14 20.2812 14.0104 19.8438 14.0312C19.4271 14.0312 18.9792 14.0625 18.5 14.125C18.0417 14.1667 17.5729 14.2396 17.0938 14.3438C16.6146 14.4479 16.1875 14.5938 15.8125 14.7812C15.4375 14.9479 15.1354 15.1771 14.9062 15.4688C14.6771 15.7604 14.5729 16.1042 14.5938 16.5C14.6146 16.9583 14.7812 17.3333 15.0938 17.625C15.4271 17.8958 15.8438 18.1146 16.3438 18.2812C16.8646 18.4271 17.4271 18.5312 18.0312 18.5938C18.6562 18.6562 19.2708 18.6979 19.875 18.7188C20.4792 18.7188 21.0417 18.7188 21.5625 18.7188C22.0833 18.6979 22.5104 18.7083 22.8438 18.75C24.5104 18.8542 26.0104 19.2083 27.3438 19.8125C28.6771 20.4167 29.8021 21.2188 30.7188 22.2188C31.6562 23.2188 32.3646 24.4167 32.8438 25.8125C33.3438 27.1875 33.5938 28.7083 33.5938 30.375ZM70.4688 21.75C70.4688 23.5625 70.3438 25.375 70.0938 27.1875C66.5312 27.4167 62.9896 27.7917 59.4688 28.3125C55.9479 28.8125 52.4271 29.3125 48.9062 29.8125C49.4479 31.3125 50.2917 32.5104 51.4375 33.4062C52.6042 34.3021 53.9896 34.75 55.5938 34.75C56.4271 34.75 57.3333 34.5938 58.3125 34.2812C59.3125 33.9688 60.3021 33.5833 61.2812 33.125C62.2604 32.6458 63.1979 32.1354 64.0938 31.5938C64.9896 31.0521 65.7604 30.5625 66.4062 30.125L64.9062 44.3125C64.0938 44.9375 63.2083 45.4688 62.25 45.9062C61.3125 46.3438 60.3333 46.6979 59.3125 46.9688C58.2917 47.2396 57.2604 47.4375 56.2188 47.5625C55.1771 47.6875 54.1562 47.75 53.1562 47.75C51.0938 47.75 49.2083 47.4688 47.5 46.9062C45.7917 46.3438 44.2396 45.5625 42.8438 44.5625C41.4688 43.5417 40.2604 42.3438 39.2188 40.9688C38.1771 39.5938 37.3125 38.0938 36.625 36.4688C35.9375 34.8438 35.4167 33.125 35.0625 31.3125C34.7083 29.5 34.5312 27.6667 34.5312 25.8125C34.5312 23.875 34.7083 21.9375 35.0625 20C35.4167 18.0625 35.9479 16.1979 36.6562 14.4062C37.3854 12.6146 38.2917 10.9583 39.375 9.4375C40.4792 7.89583 41.7604 6.55208 43.2188 5.40625C44.6771 4.26042 46.3229 3.36458 48.1562 2.71875C50.0104 2.07292 52.0521 1.75 54.2812 1.75C56.1354 1.75 57.8229 2.01042 59.3438 2.53125C60.8854 3.03125 62.25 3.73958 63.4375 4.65625C64.6458 5.55208 65.6875 6.625 66.5625 7.875C67.4583 9.125 68.1875 10.5 68.75 12C69.3333 13.4792 69.7604 15.0521 70.0312 16.7188C70.3229 18.3646 70.4688 20.0417 70.4688 21.75ZM57.9688 20.125C57.9688 19.5417 57.9062 18.9479 57.7812 18.3438C57.6562 17.7188 57.4479 17.1562 57.1562 16.6562C56.8854 16.1562 56.5208 15.75 56.0625 15.4375C55.6042 15.1042 55.0312 14.9375 54.3438 14.9375C53.5104 14.9375 52.7708 15.1667 52.125 15.625C51.5 16.0625 50.9583 16.625 50.5 17.3125C50.0417 17.9792 49.6667 18.7083 49.375 19.5C49.0833 20.2917 48.8646 21.0208 48.7188 21.6875L57.9688 20.8125V20.125ZM105.625 2.9375L105.312 16.1875L96 16.5625L94.875 45.5625L81.6875 46.25L80.5 17.25L71.1875 17.75L71.5625 3L105.625 2.9375ZM141 2.9375L140.688 16.1875L131.375 16.5625L130.25 45.5625L117.062 46.25L115.875 17.25L106.562 17.75L106.938 3L141 2.9375ZM159.094 3L156.906 45.5625L143.719 46.25L142.469 3.875L159.094 3ZM200.438 31.1875C200.438 33.5417 200.406 35.875 200.344 38.1875C200.302 40.4792 200.229 42.7917 200.125 45.125L182.125 44.8125C182.75 41.125 183.292 37.4479 183.75 33.7812C184.208 30.0938 184.438 26.375 184.438 22.625C184.438 22.3542 184.427 21.9167 184.406 21.3125C184.385 20.7083 184.344 20.0312 184.281 19.2812C184.219 18.5104 184.125 17.7292 184 16.9375C183.896 16.125 183.74 15.3854 183.531 14.7188C183.344 14.0521 183.104 13.5104 182.812 13.0938C182.542 12.6562 182.208 12.4375 181.812 12.4375C181.104 12.4375 180.5 12.6458 180 13.0625C179.521 13.4792 179.115 14.0208 178.781 14.6875C178.469 15.3333 178.219 16.0625 178.031 16.875C177.844 17.6875 177.698 18.5 177.594 19.3125C177.51 20.125 177.448 20.8958 177.406 21.625C177.385 22.3333 177.375 22.9167 177.375 23.375C177.271 27.0625 177.188 30.7292 177.125 34.375C177.062 38 176.979 41.6667 176.875 45.375L160.938 46.0625C161.354 38.7083 161.75 31.3958 162.125 24.125C162.521 16.8542 162.833 9.54167 163.062 2.1875L177.812 1.4375L177.688 6.4375C178.271 5.72917 178.896 5.0625 179.562 4.4375C180.25 3.8125 180.979 3.28125 181.75 2.84375C182.521 2.38542 183.333 2.03125 184.188 1.78125C185.062 1.51042 185.979 1.375 186.938 1.375C188.708 1.375 190.26 1.66667 191.594 2.25C192.927 2.83333 194.073 3.625 195.031 4.625C195.99 5.625 196.792 6.8125 197.438 8.1875C198.083 9.54167 198.604 10.9896 199 12.5312C199.396 14.0729 199.698 15.6875 199.906 17.375C200.115 19.0417 200.25 20.6875 200.312 22.3125C200.396 23.9375 200.438 25.5104 200.438 27.0312C200.438 28.5521 200.438 29.9375 200.438 31.1875ZM241.188 40C240.208 41.2292 239 42.3021 237.562 43.2188C236.125 44.1354 234.583 44.8958 232.938 45.5C231.292 46.1042 229.604 46.5625 227.875 46.875C226.146 47.1667 224.5 47.3125 222.938 47.3125C219.917 47.3125 217.135 46.8021 214.594 45.7812C212.052 44.7604 209.854 43.3438 208 41.5312C206.167 39.6979 204.729 37.5208 203.688 35C202.646 32.4792 202.125 29.7292 202.125 26.75C202.125 24.4792 202.385 22.2708 202.906 20.125C203.427 17.9792 204.167 15.9688 205.125 14.0938C206.104 12.2188 207.292 10.5 208.688 8.9375C210.083 7.375 211.667 6.03125 213.438 4.90625C215.208 3.78125 217.146 2.91667 219.25 2.3125C221.375 1.6875 223.625 1.375 226 1.375C226.896 1.375 227.854 1.41667 228.875 1.5C229.896 1.5625 230.906 1.6875 231.906 1.875C232.927 2.04167 233.917 2.28125 234.875 2.59375C235.833 2.90625 236.708 3.29167 237.5 3.75L236.625 15.6875C235.458 15.25 234.25 14.9583 233 14.8125C231.771 14.6458 230.562 14.5625 229.375 14.5625C227.708 14.5625 226.146 14.7917 224.688 15.25C223.25 15.6875 221.99 16.3438 220.906 17.2188C219.844 18.0938 219 19.1875 218.375 20.5C217.75 21.8125 217.438 23.3333 217.438 25.0625C217.438 26.1458 217.583 27.1979 217.875 28.2188C218.167 29.2188 218.604 30.1146 219.188 30.9062C219.792 31.6771 220.531 32.3021 221.406 32.7812C222.302 33.2604 223.333 33.5 224.5 33.5C225.292 33.5 226.104 33.3958 226.938 33.1875C227.792 32.9792 228.521 32.625 229.125 32.125L229.25 29.6875L221.75 29.5625L222.125 20.1875C225.229 20.0833 228.333 20 231.438 19.9375C234.542 19.8542 237.667 19.75 240.812 19.625L241.188 40Z" fill="#D0F0E0"/>
</svg>
