<svg width="56" height="56" viewBox="0 0 56 56" fill="none" xmlns="http://www.w3.org/2000/svg">
<path d="M28 33C30.7614 33 33 30.7614 33 28C33 25.2386 30.7614 23 28 23C25.2386 23 23 25.2386 23 28C23 30.7614 25.2386 33 28 33Z" stroke="#D0F0E0" stroke-width="5" stroke-linecap="round" stroke-linejoin="round"/>
<path d="M42.8 34C42.5338 34.6032 42.4544 35.2724 42.572 35.9212C42.6896 36.57 42.9989 37.1686 43.46 37.64L43.58 37.76C43.9519 38.1315 44.2469 38.5726 44.4482 39.0582C44.6495 39.5438 44.7531 40.0643 44.7531 40.59C44.7531 41.1157 44.6495 41.6362 44.4482 42.1218C44.2469 42.6074 43.9519 43.0485 43.58 43.42C43.2085 43.7919 42.7674 44.0869 42.2818 44.2882C41.7962 44.4895 41.2757 44.5931 40.75 44.5931C40.2243 44.5931 39.7038 44.4895 39.2182 44.2882C38.7326 44.0869 38.2915 43.7919 37.92 43.42L37.8 43.3C37.3286 42.8389 36.73 42.5296 36.0812 42.412C35.4324 42.2944 34.7632 42.3738 34.16 42.64C33.5685 42.8935 33.064 43.3145 32.7086 43.8511C32.3533 44.3877 32.1626 45.0164 32.16 45.66V46C32.16 47.0609 31.7386 48.0783 30.9884 48.8284C30.2383 49.5786 29.2209 50 28.16 50C27.0991 50 26.0817 49.5786 25.3316 48.8284C24.5814 48.0783 24.16 47.0609 24.16 46V45.82C24.1445 45.158 23.9302 44.516 23.545 43.9774C23.1598 43.4388 22.6215 43.0286 22 42.8C21.3968 42.5338 20.7276 42.4544 20.0788 42.572C19.43 42.6896 18.8314 42.9989 18.36 43.46L18.24 43.58C17.8685 43.9519 17.4274 44.2469 16.9418 44.4482C16.4562 44.6495 15.9357 44.7531 15.41 44.7531C14.8843 44.7531 14.3638 44.6495 13.8782 44.4482C13.3926 44.2469 12.9515 43.9519 12.58 43.58C12.2081 43.2085 11.9131 42.7674 11.7118 42.2818C11.5105 41.7962 11.4069 41.2757 11.4069 40.75C11.4069 40.2243 11.5105 39.7038 11.7118 39.2182C11.9131 38.7326 12.2081 38.2915 12.58 37.92L12.7 37.8C13.1611 37.3286 13.4704 36.73 13.588 36.0812C13.7056 35.4324 13.6262 34.7632 13.36 34.16C13.1065 33.5685 12.6855 33.064 12.1489 32.7086C11.6124 32.3533 10.9836 32.1626 10.34 32.16H10C8.93913 32.16 7.92172 31.7386 7.17157 30.9884C6.42143 30.2383 6 29.2209 6 28.16C6 27.0991 6.42143 26.0817 7.17157 25.3316C7.92172 24.5814 8.93913 24.16 10 24.16H10.18C10.842 24.1445 11.484 23.9302 12.0226 23.545C12.5612 23.1598 12.9714 22.6215 13.2 22C13.4662 21.3968 13.5456 20.7276 13.428 20.0788C13.3104 19.43 13.0011 18.8314 12.54 18.36L12.42 18.24C12.0481 17.8685 11.7531 17.4274 11.5518 16.9418C11.3505 16.4562 11.2469 15.9357 11.2469 15.41C11.2469 14.8843 11.3505 14.3638 11.5518 13.8782C11.7531 13.3926 12.0481 12.9515 12.42 12.58C12.7915 12.2081 13.2326 11.9131 13.7182 11.7118C14.2038 11.5105 14.7243 11.4069 15.25 11.4069C15.7757 11.4069 16.2962 11.5105 16.7818 11.7118C17.2674 11.9131 17.7085 12.2081 18.08 12.58L18.2 12.7C18.6714 13.1611 19.27 13.4704 19.9188 13.588C20.5676 13.7056 21.2368 13.6262 21.84 13.36H22C22.5915 13.1065 23.096 12.6855 23.4514 12.1489C23.8067 11.6124 23.9974 10.9836 24 10.34V10C24 8.93913 24.4214 7.92172 25.1716 7.17157C25.9217 6.42143 26.9391 6 28 6C29.0609 6 30.0783 6.42143 30.8284 7.17157C31.5786 7.92172 32 8.93913 32 10V10.18C32.0026 10.8236 32.1933 11.4524 32.5486 11.9889C32.904 12.5255 33.4085 12.9465 34 13.2C34.6032 13.4662 35.2724 13.5456 35.9212 13.428C36.57 13.3104 37.1686 13.0011 37.64 12.54L37.76 12.42C38.1315 12.0481 38.5726 11.7531 39.0582 11.5518C39.5438 11.3505 40.0643 11.2469 40.59 11.2469C41.1157 11.2469 41.6362 11.3505 42.1218 11.5518C42.6074 11.7531 43.0485 12.0481 43.42 12.42C43.7919 12.7915 44.0869 13.2326 44.2882 13.7182C44.4895 14.2038 44.5931 14.7243 44.5931 15.25C44.5931 15.7757 44.4895 16.2962 44.2882 16.7818C44.0869 17.2674 43.7919 17.7085 43.42 18.08L43.3 18.2C42.8389 18.6714 42.5296 19.27 42.412 19.9188C42.2944 20.5676 42.3738 21.2368 42.64 21.84V22C42.8935 22.5915 43.3145 23.096 43.8511 23.4514C44.3877 23.8067 45.0164 23.9974 45.66 24H46C47.0609 24 48.0783 24.4214 48.8284 25.1716C49.5786 25.9217 50 26.9391 50 28C50 29.0609 49.5786 30.0783 48.8284 30.8284C48.0783 31.5786 47.0609 32 46 32H45.82C45.1764 32.0026 44.5477 32.1933 44.0111 32.5486C43.4745 32.904 43.0535 33.4085 42.8 34Z" stroke="#D0F0E0" stroke-width="6" stroke-linecap="round" stroke-linejoin="round"/>
</svg>
